<svg width="330" height="75" viewBox="0 0 330 75" fill="none" xmlns="http://www.w3.org/2000/svg">
<path d="M28.129 68.9805C28.0078 68.9389 27.8842 68.8957 27.7598 68.851C27.8842 68.8949 28.0078 68.9389 28.129 68.9805Z" fill="white"/>
<path d="M30.2002 69.5784C30.091 69.5528 29.9811 69.5272 29.8711 69.5C29.9811 69.528 30.091 69.5536 30.2002 69.5784Z" fill="white"/>
<path d="M27.0152 68.5762C26.851 68.5131 26.6907 68.4492 26.5312 68.3853C26.6899 68.4492 26.851 68.5131 27.0152 68.5762Z" fill="white"/>
<path d="M29.6818 69.4509C29.5798 69.4244 29.4778 69.3972 29.375 69.3684C29.4778 69.3972 29.5806 69.4244 29.6818 69.4509Z" fill="white"/>
<path d="M47.8262 64.2471C47.8262 64.2471 47.8262 64.2471 47.8276 64.2456C47.8276 64.2456 47.8276 64.247 47.8262 64.2485V64.2471Z" fill="white"/>
<path d="M47.7024 64.378C47.6893 64.391 47.6762 64.4049 47.6631 64.4188C47.6762 64.4049 47.6893 64.3919 47.7024 64.378Z" fill="white"/>
<path d="M22.7827 66.592C22.6591 66.5216 22.5387 66.4513 22.4199 66.3809C22.5379 66.4513 22.6591 66.5216 22.7827 66.592Z" fill="white"/>
<path d="M27.5836 68.7883C27.3977 68.7204 27.2086 68.6509 27.0146 68.5759C27.2086 68.6501 27.3977 68.7204 27.5836 68.7883Z" fill="white"/>
<path d="M49.0288 62.5233C49.002 62.5678 48.9752 62.6124 48.9492 62.6569C48.9752 62.6132 49.002 62.5686 49.0288 62.5233Z" fill="white"/>
<path d="M56.4644 26.4487C55.6669 24.638 53.5765 20.5429 48.5351 13.4683C43.6272 6.58107 42.8872 5.68887 39.7377 2.85679C37.797 1.11226 35.205 0.189758 32.2411 0.189758C29.826 0.189758 27.1436 0.826817 24.8813 1.93828C21.4622 3.61743 12.64 8.44042 4.59227 16.9327L4.50427 17.026L4.42187 17.124C2.15074 19.8477 0.993968 22.0307 0.672376 24.2034C0.327586 26.53 0.996367 28.3343 1.58675 29.9258C1.73715 30.3316 1.89234 30.751 2.03314 31.1832C3.74829 36.455 7.62738 42.4198 10.5785 46.4949C12.8928 49.6905 15.36 52.714 17.4495 54.9536C15.7648 55.3786 14.5088 56.2421 13.704 57.5394C12.928 58.7888 12.3113 60.8929 13.776 63.8206C14.6976 65.6609 18.2159 69.5271 25.5613 72.3424C29.5148 73.8581 32.0355 74.1244 35.8714 74.1244C39.7073 74.1244 44.3896 71.8449 47.2615 69.8922C50.5046 67.6884 51.435 66.3808 52.3949 64.775L52.4997 64.6004C53.8005 62.4413 53.9301 60.1163 52.8541 58.2211C52.3589 57.3488 51.6494 56.6384 50.7742 56.1114C51.435 54.9497 51.9246 53.4356 52.279 51.4877C52.6821 49.2727 52.8245 46.9454 52.8245 45.6258C52.8245 44.0559 52.5605 42.0817 52.3134 40.7582C52.1486 39.8739 51.9662 39.1237 51.7734 38.5297C50.747 35.3747 48.4503 35.0342 47.5111 35.0342C46.4479 35.0342 45.6175 35.3906 44.968 35.8905L44.8296 35.4672C45.4639 34.559 45.9143 33.3702 46.1719 31.8976C46.2615 31.3873 46.3303 30.8579 46.3855 30.3237C49.2838 31.9382 50.875 32.718 52.4397 32.718C53.4701 32.718 54.4237 32.3855 55.1973 31.7564C56.7596 30.4863 57.2804 28.304 56.4644 26.4503V26.4487ZM49.0286 62.5234C49.075 62.4469 49.1174 62.3711 49.1566 62.2962C49.1166 62.3711 49.075 62.4461 49.0286 62.5234C48.967 62.6255 48.9078 62.7243 48.8494 62.8224C48.8382 62.8415 48.827 62.8599 48.8158 62.879C48.803 62.8997 48.7902 62.9213 48.7775 62.942C48.7622 62.9675 48.7463 62.993 48.731 63.0185C48.7222 63.0329 48.7134 63.0472 48.7046 63.0616C48.6806 63.0999 48.6575 63.1381 48.6327 63.1764C48.6247 63.1892 48.6167 63.2019 48.6079 63.2147C48.5911 63.241 48.5743 63.2681 48.5567 63.2944C48.5463 63.3096 48.5367 63.3255 48.5263 63.3406C48.5103 63.3654 48.4935 63.3901 48.4767 63.4156C48.4663 63.4307 48.4559 63.4459 48.4463 63.461C48.4271 63.489 48.4079 63.5169 48.3887 63.5448C48.3799 63.5567 48.3719 63.5687 48.3631 63.5806C48.3351 63.6205 48.3063 63.6604 48.2767 63.7002C48.2703 63.7082 48.2639 63.717 48.2583 63.725C48.2343 63.7569 48.2095 63.7895 48.1847 63.8214C48.1735 63.8358 48.1623 63.8493 48.1511 63.8637C48.1295 63.8908 48.1071 63.9187 48.0847 63.9466C48.0727 63.9618 48.0607 63.9761 48.0479 63.9913C48.0239 64.02 47.9991 64.0495 47.9743 64.0782C47.9631 64.0917 47.9519 64.1045 47.9399 64.118C47.9031 64.1603 47.8655 64.2026 47.8263 64.2456C47.8263 64.2456 47.8263 64.2456 47.8255 64.2472C47.7863 64.2903 47.7447 64.3341 47.7023 64.3788C47.6895 64.3923 47.6751 64.4067 47.6623 64.4202C47.6319 64.4513 47.6015 64.4824 47.5695 64.5143C47.5615 64.5223 47.5551 64.5295 47.5471 64.5374C47.5551 64.5295 47.5615 64.5223 47.5695 64.5151C47.0175 65.0676 46.2279 65.7111 44.9799 66.5594C42.1848 68.4586 38.4009 70.09 35.8706 70.09C33.8779 70.09 32.3659 70.0102 30.8379 69.716C30.6779 69.6849 30.518 69.6514 30.3572 69.6156C30.3052 69.6036 30.2524 69.5908 30.1996 69.5789C30.09 69.5534 29.9812 69.5278 29.8708 69.4999C29.8084 69.484 29.7444 69.4673 29.6812 69.4505C29.5796 69.4242 29.4772 69.3963 29.3748 69.3676C29.3076 69.3493 29.2404 69.3293 29.1724 69.3102C29.07 69.2807 28.9676 69.2496 28.8636 69.2177C28.7948 69.197 28.726 69.1754 28.6564 69.1531C28.5492 69.1188 28.4404 69.0837 28.3308 69.0471C28.2636 69.0247 28.1964 69.0024 28.1276 68.9793C28.006 68.9378 27.882 68.894 27.7572 68.8493C27.6988 68.8286 27.6412 68.8087 27.582 68.7871C27.3964 68.7194 27.2076 68.6492 27.014 68.5751C26.8501 68.5121 26.6893 68.4483 26.5309 68.3845C26.4253 68.3422 26.3213 68.3 26.2181 68.2569C26.2061 68.2521 26.1933 68.2466 26.1805 68.2418C26.1925 68.2466 26.2053 68.2521 26.2181 68.2569C24.9085 67.7171 23.7669 67.1526 22.7814 66.5905C22.6582 66.5204 22.5374 66.4494 22.4198 66.3792C19.2951 64.5287 17.8247 62.7546 17.4495 62.1096C17.4303 62.0761 17.4135 62.0458 17.3999 62.0187C17.3623 61.943 17.3271 61.8688 17.2935 61.7947C17.3271 61.868 17.3615 61.943 17.3999 62.0187C16.0632 59.3485 17.5215 58.0353 23.4725 58.9921C26.2653 59.441 28.4052 60.8586 30.558 62.2706C31.7523 63.0544 34.6066 65.8012 35.8714 68.3231C35.8714 68.3231 36.6082 65.4193 38.9081 63.0273C41.2505 60.5907 43.7168 59.5024 44.9808 59.244C45.8287 59.071 46.6239 59.0343 47.3063 59.1236C47.2791 59.1204 47.2527 59.1165 47.2255 59.1133C47.2863 59.1204 47.3471 59.1276 47.4063 59.1372C49.2254 59.4115 50.183 60.6066 49.0286 62.5234ZM19.8494 58.6851C19.9542 58.6819 20.0614 58.6803 20.1718 58.6803C20.1758 58.6803 20.1798 58.6803 20.1838 58.6803C20.0686 58.6803 19.9574 58.6819 19.8494 58.6851ZM52.6381 28.6278C52.6173 28.6445 52.5909 28.6565 52.5613 28.6644C52.5573 28.6652 52.5541 28.6668 52.5501 28.6684C52.5205 28.6756 52.4869 28.6796 52.4493 28.6796C52.4461 28.6796 52.4437 28.6804 52.4397 28.6804C52.4365 28.6804 52.4325 28.6796 52.4293 28.6796C52.3901 28.6796 52.3478 28.6756 52.3013 28.6684C52.2934 28.6676 52.2854 28.666 52.2774 28.6644C52.2286 28.6565 52.1774 28.6453 52.1214 28.6309C52.1142 28.6293 52.1062 28.627 52.099 28.6246C52.0398 28.6086 51.9782 28.5903 51.9118 28.5688C51.9102 28.5688 51.9086 28.5672 51.9062 28.5672C51.8406 28.5448 51.7702 28.5201 51.6974 28.4922C51.6886 28.489 51.6806 28.4858 51.6718 28.4826C51.6014 28.4555 51.527 28.4252 51.451 28.3933C51.4374 28.3878 51.4238 28.3822 51.4094 28.3758C51.3342 28.3439 51.2566 28.3096 51.1766 28.2737C51.1606 28.2666 51.1438 28.2586 51.127 28.2514C51.0462 28.2147 50.9638 28.1757 50.879 28.135C50.863 28.127 50.8462 28.1191 50.8294 28.1111C50.7414 28.0688 50.6526 28.025 50.5606 27.9795C50.5486 27.9732 50.5358 27.9668 50.5238 27.9612C50.435 27.9165 50.3446 27.8711 50.2526 27.8241C50.2398 27.8177 50.227 27.8113 50.2142 27.8041C50.1198 27.7555 50.0238 27.7053 49.9262 27.6542C49.9046 27.6431 49.883 27.6311 49.8606 27.6199C49.767 27.5705 49.6726 27.5203 49.5766 27.4685C49.5494 27.4541 49.5222 27.4389 49.495 27.4246C49.4014 27.3744 49.3078 27.3233 49.2126 27.2715C49.183 27.2556 49.1526 27.2388 49.123 27.2229C49.0278 27.171 48.9326 27.1184 48.8366 27.065C48.8078 27.0491 48.7783 27.0323 48.7486 27.0164C48.6631 26.9693 48.5775 26.9215 48.4911 26.8737C48.4487 26.8497 48.4055 26.8258 48.3631 26.8019C48.2903 26.7612 48.2183 26.7206 48.1455 26.6799C48.0583 26.6313 47.9711 26.5818 47.8831 26.5332C47.8527 26.5157 47.8215 26.4989 47.7911 26.4814C47.2551 26.1808 46.7199 25.8786 46.2095 25.5971C46.2079 25.5963 46.2055 25.5947 46.2031 25.594C46.0919 25.5326 45.9823 25.472 45.8743 25.413C45.8623 25.4066 45.8495 25.3994 45.8375 25.393C45.7335 25.3364 45.6311 25.2806 45.5303 25.2264C45.5159 25.2184 45.5015 25.2104 45.4863 25.2033C45.3871 25.1498 45.2887 25.0972 45.1927 25.047C45.1791 25.0398 45.1647 25.0326 45.1511 25.0255C45.0544 24.9744 44.9584 24.9242 44.8656 24.8764C44.8576 24.8724 44.8504 24.8684 44.8424 24.8644C44.7488 24.8166 44.6568 24.7703 44.568 24.7257C44.5632 24.7233 44.5592 24.7209 44.5544 24.7193C44.4664 24.6762 44.3824 24.6348 44.3 24.5957C44.288 24.5901 44.2752 24.5837 44.2632 24.5782C44.1848 24.5415 44.1088 24.5064 44.036 24.4737C44.0224 24.4681 44.0096 24.4618 43.996 24.4562C43.924 24.4243 43.856 24.3956 43.7896 24.3685C43.7776 24.3637 43.7664 24.3589 43.7544 24.3541C43.6888 24.3278 43.6256 24.3031 43.5656 24.2824C43.5576 24.2792 43.5504 24.2768 43.5424 24.2744C43.4808 24.2529 43.4224 24.2337 43.3688 24.2186C43.3672 24.2186 43.3656 24.2186 43.364 24.217C43.3112 24.2018 43.2624 24.1907 43.2176 24.1827C43.2128 24.1819 43.2072 24.1803 43.2024 24.1795C43.1592 24.1723 43.1216 24.1683 43.0864 24.1683C43.08 24.1683 43.0728 24.1683 43.0664 24.1683C43.0512 24.1683 43.0368 24.1699 43.0232 24.1715C43.0168 24.1723 43.0096 24.1731 43.004 24.1739C42.9856 24.1779 42.9688 24.1827 42.9544 24.1899C42.944 24.1947 42.9344 24.2018 42.924 24.2106C42.9208 24.213 42.9176 24.217 42.9152 24.2202C42.9088 24.2265 42.9024 24.2337 42.896 24.2417C42.8928 24.2465 42.8888 24.2521 42.8856 24.2576C42.88 24.2656 42.8744 24.2744 42.8696 24.284C42.8656 24.2903 42.8624 24.2983 42.8592 24.3055C42.8544 24.3158 42.8496 24.3254 42.8448 24.3366C42.8416 24.3446 42.8376 24.3533 42.8344 24.3621C42.8296 24.3741 42.8256 24.386 42.8208 24.3988C42.8176 24.4083 42.8144 24.4187 42.8112 24.4291C42.8072 24.4426 42.8032 24.4562 42.7992 24.4705C42.796 24.4817 42.7928 24.4929 42.7904 24.504C42.7864 24.5192 42.7824 24.5359 42.7784 24.5527C42.776 24.5646 42.7728 24.5766 42.7704 24.5885C42.7664 24.6061 42.7624 24.6244 42.7592 24.6435C42.7568 24.6563 42.7544 24.6691 42.752 24.6818C42.748 24.7017 42.7448 24.7233 42.7408 24.744C42.7384 24.7568 42.736 24.7695 42.7344 24.7831C42.7304 24.807 42.7264 24.8325 42.7232 24.858C42.7216 24.8692 42.72 24.8804 42.7184 24.8923C42.7136 24.925 42.7088 24.9593 42.7048 24.9944C42.7048 24.9992 42.7032 25.0039 42.7032 25.0087C42.6928 25.0908 42.6832 25.1785 42.6744 25.2702C42.6744 25.2774 42.6728 25.2854 42.672 25.2926C42.668 25.3308 42.6648 25.3707 42.6608 25.4106C42.66 25.4217 42.6592 25.4337 42.6576 25.4449C42.6544 25.4815 42.6512 25.519 42.648 25.5573C42.6472 25.57 42.6464 25.5828 42.6448 25.5947C42.6416 25.6338 42.6384 25.6737 42.6352 25.7143C42.6344 25.7255 42.6336 25.7367 42.6328 25.7478C42.6296 25.7893 42.6264 25.8316 42.624 25.8746C42.624 25.8858 42.6224 25.8969 42.6216 25.9089C42.6184 25.9543 42.6152 26.0006 42.6128 26.0476C42.6128 26.0548 42.612 26.0628 42.6112 26.07C42.608 26.1226 42.6048 26.1752 42.6016 26.2294C42.6016 26.2318 42.6016 26.2342 42.6016 26.2358C42.4416 28.8885 42.3704 33.2036 41.0049 33.5321C39.2177 33.9618 33.4827 29.5104 30.6515 27.7228H30.6507C30.13 27.3943 29.7076 27.1551 29.426 27.053C29.4204 27.0515 29.4156 27.0491 29.41 27.0475C29.3676 27.0323 29.3284 27.0212 29.2924 27.0124C29.2876 27.0116 29.2836 27.0108 29.2788 27.01C29.2484 27.0036 29.2212 27.0004 29.1964 26.9996C29.1908 26.9996 29.1844 26.9988 29.1788 26.9996C29.1572 26.9996 29.1372 27.002 29.1204 27.0076C29.106 27.0124 29.0908 27.0188 29.0764 27.0275C29.0724 27.0299 29.0676 27.0339 29.0636 27.0363C29.0532 27.0427 29.0428 27.0491 29.0324 27.0578C29.0276 27.0618 29.0236 27.0666 29.0188 27.0706C29.0084 27.0794 28.998 27.0889 28.9884 27.0993C28.9836 27.1041 28.9788 27.1105 28.974 27.116C28.9636 27.1272 28.954 27.1384 28.9436 27.1511C28.9388 27.1575 28.934 27.1639 28.9292 27.1703C28.9188 27.1838 28.9084 27.1974 28.898 27.2125C28.8932 27.2189 28.8892 27.2269 28.8844 27.2332C28.874 27.25 28.8628 27.2659 28.8524 27.2843C28.8484 27.2906 28.8444 27.2978 28.8404 27.305C28.8292 27.3249 28.818 27.3441 28.806 27.3656C28.802 27.372 28.7988 27.3799 28.7948 27.3863C28.7828 27.4087 28.7716 27.431 28.7596 27.4557C28.7564 27.4629 28.7532 27.47 28.7492 27.4772C28.7372 27.5027 28.7252 27.5282 28.7124 27.5546C28.7092 27.5609 28.7068 27.5673 28.7036 27.5737C28.6908 27.6024 28.678 27.6311 28.6652 27.6622C28.6628 27.6678 28.6604 27.6734 28.658 27.6789C28.6444 27.7108 28.6308 27.7435 28.6172 27.777C28.6148 27.7826 28.6124 27.789 28.61 27.7946C28.5964 27.8288 28.5828 27.8639 28.5684 27.8998C28.5668 27.9046 28.5644 27.9102 28.5628 27.9149C28.5484 27.9524 28.534 27.9907 28.5196 28.0306C28.5188 28.033 28.518 28.0361 28.5172 28.0385C28.502 28.0808 28.486 28.1238 28.4708 28.1677C28.4708 28.1701 28.4692 28.1725 28.4684 28.1741C28.4364 28.2658 28.4036 28.3614 28.37 28.4611C27.5692 30.8674 26.5285 35.4337 24.7357 35.7909C23.0302 36.1305 18.7279 33.8526 15.3832 31.589C15.364 31.5762 15.344 31.5627 15.3248 31.5499C15.2208 31.479 15.1176 31.4088 15.0152 31.3378C14.9856 31.3179 14.9568 31.2972 14.9272 31.2772C14.8272 31.2079 14.728 31.1385 14.6304 31.0691C14.612 31.0564 14.5936 31.0428 14.5752 31.0301C14.3768 30.889 14.1824 30.7494 13.9944 30.6107C13.9744 30.5955 13.9536 30.5812 13.9336 30.566C13.8592 30.511 13.788 30.4568 13.7152 30.4026C13.6648 30.3643 13.6144 30.3268 13.5648 30.2894C13.5008 30.2407 13.4376 30.1921 13.3752 30.1435C13.3184 30.0996 13.2624 30.0558 13.2072 30.0127C13.152 29.9696 13.0968 29.9266 13.0432 29.8835C12.9696 29.8245 12.8984 29.7671 12.8272 29.7097C12.7832 29.6738 12.7392 29.638 12.696 29.6029C12.608 29.5303 12.5232 29.4586 12.4409 29.3884C12.4065 29.3589 12.3737 29.3302 12.3409 29.3015C12.2785 29.2481 12.2185 29.1946 12.1601 29.142C12.1273 29.1125 12.0953 29.0838 12.0641 29.0559C12.0057 29.0025 11.9497 28.9507 11.8953 28.8996C11.8697 28.8757 11.8433 28.851 11.8185 28.8271C11.7425 28.7537 11.6689 28.682 11.6017 28.6126C11.6465 28.8502 11.6961 29.0878 11.7481 29.3254C11.7617 29.386 11.7745 29.4466 11.7881 29.5072C11.8385 29.732 11.8913 29.9569 11.9473 30.1817C11.9505 30.1945 11.9537 30.208 11.9569 30.2208C12.0169 30.4584 12.0801 30.6952 12.1457 30.932C12.1617 30.9902 12.1785 31.0484 12.1945 31.1066C12.2569 31.3251 12.3209 31.5436 12.3873 31.762C12.3937 31.7819 12.3993 31.8011 12.4049 31.821C12.4784 32.0586 12.5552 32.2962 12.6344 32.533C12.652 32.5856 12.6696 32.6383 12.688 32.6909C12.7616 32.9078 12.8368 33.1238 12.9144 33.3399C12.9224 33.3622 12.9296 33.3838 12.9376 33.4061C13.024 33.6445 13.1136 33.8829 13.2056 34.1197C13.2224 34.1635 13.24 34.2082 13.2576 34.252C13.3432 34.4721 13.4312 34.6914 13.5208 34.9098C13.5288 34.929 13.536 34.9473 13.544 34.9664C13.6432 35.2072 13.7456 35.4464 13.8496 35.6848C13.864 35.7183 13.8784 35.751 13.8936 35.7837C13.992 36.0085 14.0928 36.2326 14.1952 36.455C14.2016 36.4694 14.2088 36.4845 14.2152 36.4989C14.3272 36.7405 14.4408 36.9813 14.556 37.2205C14.5656 37.2404 14.5752 37.2595 14.5848 37.2795C14.6976 37.5115 14.812 37.7419 14.928 37.9707C14.932 37.9787 14.936 37.9867 14.94 37.9955C15.0632 38.2378 15.188 38.4794 15.3152 38.7186C15.3176 38.7234 15.32 38.7282 15.3232 38.733C15.4496 38.9714 15.5776 39.2074 15.7072 39.4418C15.7088 39.445 15.7104 39.4474 15.712 39.4506C15.976 39.9282 16.2455 40.3986 16.5207 40.8594C19.1967 45.3483 22.311 48.9769 24.4341 50.6864C24.6461 50.857 24.8485 51.0085 25.0389 51.1401C25.0405 51.1417 25.0429 51.1425 25.0445 51.1441C25.2333 51.274 25.4101 51.3833 25.5749 51.4725C25.5805 51.4757 25.5853 51.4781 25.5909 51.4813C25.6629 51.5196 25.7325 51.5539 25.7997 51.5842C25.8109 51.589 25.8229 51.5945 25.8341 51.6001C25.9045 51.6312 25.9733 51.6583 26.0373 51.6799C26.0437 51.6822 26.0493 51.683 26.0557 51.6854C26.1117 51.7038 26.1653 51.7173 26.2165 51.7277C26.2309 51.7309 26.2453 51.7333 26.2597 51.7357C26.3149 51.7452 26.3685 51.7516 26.4181 51.7516C26.4677 51.7516 26.5117 51.7476 26.5573 51.7412C26.5701 51.7397 26.5837 51.7373 26.5965 51.7349C26.6317 51.7285 26.6669 51.7205 26.7021 51.7109C26.7133 51.7078 26.7245 51.7054 26.7357 51.7014C26.7797 51.687 26.8237 51.6703 26.8669 51.6511C26.8749 51.6472 26.8829 51.6424 26.8917 51.6384C26.9277 51.6209 26.9629 51.6017 26.9981 51.581C27.01 51.5738 27.0228 51.5658 27.0348 51.5587C27.0708 51.5355 27.1068 51.5108 27.142 51.4837C27.1484 51.4789 27.1548 51.4749 27.1612 51.4694C27.202 51.4375 27.2428 51.4024 27.2828 51.3649C27.2932 51.3553 27.3028 51.3458 27.3132 51.3354C27.3444 51.3051 27.3756 51.274 27.4068 51.2405C27.4172 51.2294 27.4276 51.2182 27.438 51.207C27.4772 51.1632 27.5164 51.1185 27.554 51.0707C27.5556 51.0691 27.5564 51.0675 27.558 51.0659C27.5948 51.0197 27.6316 50.9702 27.6676 50.92C27.6772 50.9065 27.6876 50.8921 27.6972 50.8777C27.7276 50.8347 27.7572 50.79 27.7868 50.7446C27.794 50.7334 27.802 50.7223 27.8092 50.7103C27.846 50.6529 27.882 50.5939 27.9172 50.5333C27.9236 50.5229 27.9292 50.5118 27.9356 50.5014C27.9652 50.4496 27.9948 50.397 28.0244 50.3428C28.0332 50.3268 28.042 50.3101 28.0508 50.2933C28.0828 50.2327 28.1148 50.1721 28.146 50.1091C28.1484 50.1044 28.1508 50.0996 28.1532 50.0948C28.1876 50.0254 28.2212 49.9545 28.2548 49.8827C28.262 49.8675 28.2692 49.8524 28.2756 49.8372C28.3028 49.7782 28.33 49.7176 28.3572 49.6571C28.3644 49.6411 28.3716 49.6252 28.378 49.6092C28.4108 49.5343 28.4428 49.4577 28.4748 49.3804C29.5324 46.821 30.2148 43.1079 31.0603 43.1079C31.9059 43.1079 33.0939 45.8028 34.0323 47.5848C34.0835 47.6829 34.1347 47.7778 34.1842 47.8695C34.1907 47.8814 34.197 47.8934 34.2034 47.9045C34.2258 47.9452 34.2482 47.9851 34.2698 48.0249C34.2834 48.0497 34.2971 48.0736 34.3106 48.0967C34.3394 48.1485 34.3682 48.198 34.397 48.2466C34.4162 48.2801 34.4362 48.3128 34.4554 48.3447C34.4714 48.3718 34.4874 48.3973 34.5034 48.4228C34.5242 48.4563 34.545 48.489 34.5658 48.5209C34.581 48.544 34.5962 48.5679 34.6106 48.5902C34.637 48.6293 34.6626 48.6668 34.6874 48.7019C34.6986 48.7178 34.7106 48.7338 34.7218 48.7489C34.7466 48.7824 34.7714 48.8151 34.7954 48.8446C34.8018 48.8526 34.8082 48.8605 34.8146 48.8685C34.8426 48.902 34.8698 48.9315 34.8962 48.9594C34.9042 48.9682 34.913 48.9761 34.921 48.9841C34.9474 49.0096 34.973 49.032 34.9978 49.0511C34.9994 49.0527 35.0018 49.0543 35.0034 49.0559C35.0298 49.075 35.0546 49.0886 35.0794 49.0997C35.0858 49.1029 35.0922 49.1053 35.0978 49.1077C35.1226 49.1165 35.1466 49.1228 35.169 49.1228C35.1914 49.1228 35.2154 49.1181 35.2386 49.1117C35.245 49.1101 35.2506 49.1077 35.257 49.1061C35.2786 49.0989 35.301 49.0894 35.3234 49.0766C35.3258 49.075 35.3274 49.075 35.3298 49.0734C35.3546 49.0591 35.3794 49.0415 35.4042 49.0216C35.4106 49.0168 35.417 49.0112 35.4234 49.0056C35.4458 48.9865 35.4682 48.9658 35.4914 48.9427C35.4946 48.9387 35.4986 48.9363 35.5018 48.9323C35.5282 48.9052 35.5546 48.8749 35.581 48.843C35.5874 48.8358 35.593 48.8278 35.5994 48.8207C35.6226 48.792 35.6466 48.7609 35.6706 48.7282C35.6746 48.7218 35.6794 48.7162 35.6834 48.7106C35.7114 48.6716 35.7394 48.6301 35.7682 48.5871C35.7738 48.5791 35.7794 48.5703 35.7842 48.5615C35.809 48.5225 35.8346 48.4818 35.8602 48.4395C35.865 48.4316 35.8698 48.4236 35.8746 48.4156C35.9042 48.3654 35.9346 48.3136 35.9642 48.2594C35.9682 48.253 35.9714 48.2458 35.9754 48.2394C36.0034 48.1892 36.0314 48.1374 36.0594 48.0839C36.0634 48.076 36.0682 48.0672 36.0722 48.0592C36.1042 47.9986 36.1354 47.9364 36.1682 47.8727C36.169 47.8703 36.1706 47.8679 36.1714 47.8655C36.2026 47.8025 36.2346 47.7379 36.2658 47.6717C36.269 47.6646 36.273 47.6574 36.2762 47.6502C36.3426 47.5107 36.4106 47.3648 36.4786 47.2133C36.481 47.2085 36.4834 47.2037 36.485 47.1981C36.5546 47.0426 36.625 46.8824 36.6962 46.7173C37.693 44.3963 38.7961 41.2262 39.5009 41.1815C40.3921 41.1249 41.4184 43.438 42.2352 45.1817C42.236 45.1833 42.2368 45.1857 42.2376 45.1873C42.2736 45.263 42.308 45.338 42.3432 45.4113C42.3544 45.4344 42.3648 45.4568 42.3752 45.4791C42.4016 45.5341 42.4272 45.5883 42.4528 45.6418C42.4648 45.6665 42.4768 45.6912 42.488 45.7151C42.5136 45.7685 42.5392 45.8204 42.564 45.8714C42.5744 45.8921 42.584 45.9128 42.5944 45.9328C42.6288 46.0013 42.6624 46.0691 42.6952 46.1329C42.6992 46.1417 42.704 46.1488 42.708 46.1576C42.736 46.2126 42.764 46.2653 42.792 46.3163C42.8024 46.3354 42.8128 46.3538 42.8232 46.3729C42.8448 46.412 42.8656 46.4502 42.8864 46.4861C42.8976 46.5053 42.908 46.5236 42.9184 46.5419C42.9392 46.5778 42.96 46.6113 42.98 46.644C42.9888 46.6583 42.9984 46.6743 43.0072 46.6878C43.036 46.7325 43.064 46.7739 43.0912 46.8114C43.0936 46.8146 43.0952 46.817 43.0976 46.8202C43.1224 46.8537 43.1464 46.884 43.1704 46.9119C43.1784 46.9215 43.1864 46.9294 43.1944 46.9382C43.212 46.9573 43.2288 46.9741 43.2456 46.9892C43.2544 46.9972 43.2624 47.0044 43.2712 47.0107C43.2872 47.0235 43.3032 47.0339 43.3192 47.0426C43.3264 47.0466 43.3336 47.0514 43.3408 47.0546C43.3624 47.0642 43.384 47.0705 43.404 47.0705C43.4224 47.0705 43.4424 47.065 43.4632 47.0554C43.4664 47.0538 43.4704 47.053 43.4736 47.0506C43.4936 47.041 43.5144 47.0267 43.536 47.0092C43.54 47.006 43.5448 47.002 43.5488 46.998C43.5712 46.9781 43.5944 46.9557 43.6192 46.9286C43.6208 46.927 43.6224 46.9246 43.624 46.923C43.648 46.8959 43.672 46.8656 43.6976 46.8314C43.7016 46.8258 43.7056 46.8202 43.7104 46.8146C43.736 46.7795 43.7624 46.7413 43.7896 46.6998C43.7952 46.6918 43.8008 46.6831 43.8056 46.6743C43.8328 46.6312 43.8616 46.5858 43.8904 46.5363C43.8936 46.5308 43.8968 46.5252 43.9 46.5196C43.928 46.4718 43.9568 46.4207 43.9856 46.3681C43.9896 46.3601 43.9944 46.353 43.9984 46.345C44.0288 46.2892 44.0592 46.231 44.0912 46.1704C44.0976 46.1576 44.1048 46.1449 44.1112 46.1321C44.1424 46.0707 44.1744 46.0077 44.2072 45.9415C44.212 45.932 44.2168 45.9216 44.2216 45.9112C44.2528 45.8467 44.2848 45.7805 44.3176 45.7127C44.3216 45.7039 44.3256 45.696 44.3296 45.6872C44.3632 45.6154 44.3976 45.5413 44.4328 45.4655C44.44 45.4496 44.4472 45.4337 44.4544 45.4177C44.4888 45.342 44.524 45.2654 44.5592 45.1865C44.5648 45.1737 44.5704 45.1602 44.5768 45.1474C44.612 45.0685 44.648 44.988 44.684 44.9058C44.6864 44.901 44.688 44.8963 44.6904 44.8907C44.728 44.8054 44.7656 44.7193 44.8032 44.6315C44.8104 44.6148 44.8176 44.5989 44.8248 44.5821C44.8616 44.4976 44.8984 44.4115 44.9352 44.3254C44.9424 44.3078 44.9504 44.2895 44.9576 44.272C44.9944 44.1851 45.0319 44.0965 45.0695 44.008C45.6143 42.718 46.1887 41.29 46.6631 40.3029C46.6639 40.3005 46.6647 40.2989 46.6663 40.2965C46.6895 40.2487 46.7119 40.2024 46.7343 40.157C46.7399 40.1458 46.7447 40.1355 46.7503 40.1251C46.7687 40.0884 46.7863 40.0525 46.8039 40.0175C46.8103 40.0047 46.8175 39.9919 46.8239 39.9784C46.8407 39.9465 46.8567 39.9146 46.8727 39.8835C46.8791 39.8708 46.8863 39.858 46.8927 39.8452C46.9087 39.8149 46.9247 39.7862 46.9399 39.7575C46.9463 39.7456 46.9527 39.7336 46.9591 39.7225C46.9751 39.693 46.9911 39.665 47.0071 39.6371C47.0127 39.6276 47.0183 39.618 47.0231 39.6084C47.0423 39.5757 47.0607 39.5447 47.0791 39.5152C47.0807 39.512 47.0831 39.5088 47.0847 39.5056C47.1055 39.4721 47.1255 39.441 47.1455 39.4107C47.1487 39.4059 47.1519 39.4011 47.1551 39.3964C47.1711 39.3724 47.1863 39.3501 47.2023 39.3286C47.2087 39.3198 47.2143 39.3126 47.2207 39.3047C47.2327 39.2879 47.2447 39.272 47.2567 39.2576C47.2631 39.2488 47.2703 39.2417 47.2767 39.2337C47.2879 39.2209 47.2983 39.2082 47.3087 39.197C47.3151 39.1898 47.3223 39.1827 47.3287 39.1763C47.3391 39.1659 47.3487 39.1564 47.3583 39.1476C47.3647 39.142 47.3711 39.1364 47.3775 39.1308C47.3871 39.1229 47.3967 39.1165 47.4055 39.1101C47.4111 39.1061 47.4175 39.1021 47.4231 39.0982C47.4327 39.0926 47.4423 39.0878 47.4519 39.0846C47.4567 39.083 47.4615 39.0798 47.4663 39.0782C47.4799 39.0742 47.4927 39.071 47.5055 39.071C47.9327 39.071 48.5399 42.1232 48.7191 44.4402C48.7519 44.8691 48.771 45.2734 48.771 45.6282C48.771 46.1249 48.7463 46.8027 48.6887 47.5697C48.6719 47.7889 48.6535 48.0154 48.6311 48.2466C48.5439 49.1723 48.4111 50.1793 48.2215 51.1297C47.8671 52.9109 47.3151 54.492 46.4935 54.96C46.4463 54.9863 46.3975 55.0142 46.3479 55.0414C46.3423 55.0445 46.3375 55.0469 46.3319 55.0501C44.8816 55.8451 42.2992 56.8608 38.9169 57.285C38.9105 57.285 38.9041 57.2866 38.8985 57.2874C38.6161 57.3225 38.3281 57.3536 38.0345 57.3799C38.0217 57.3807 38.0097 57.3823 37.9969 57.3831C37.7058 57.4086 37.4098 57.4301 37.1082 57.4469C37.0954 57.4469 37.0826 57.4485 37.069 57.4493C36.757 57.466 36.441 57.4772 36.1186 57.4819C35.7954 57.4875 35.4466 57.4923 35.0778 57.4939C35.0642 57.4939 35.0498 57.4939 35.0362 57.4939C34.9266 57.4939 34.8154 57.4947 34.7018 57.4947C34.7018 57.4947 34.701 57.4947 34.7002 57.4947C34.549 57.4947 34.3938 57.4939 34.2362 57.4923C34.1939 57.4923 34.1507 57.4915 34.1083 57.4907C33.9819 57.4891 33.8531 57.4875 33.7235 57.4851C33.6843 57.4851 33.6451 57.4835 33.6051 57.4827C33.2643 57.4756 32.9131 57.4636 32.5539 57.4469C32.5243 57.4453 32.4947 57.4437 32.4651 57.4421C32.3067 57.4341 32.1475 57.4253 31.9867 57.415C31.9595 57.4134 31.9331 57.4118 31.9059 57.4102C31.5307 57.3855 31.1491 57.3536 30.7643 57.3145C30.7411 57.3121 30.7171 57.3097 30.6939 57.3073C30.5228 57.289 30.3516 57.2699 30.1788 57.2483C30.162 57.2459 30.1452 57.2443 30.1284 57.2428C30.1284 57.2428 30.1284 57.2428 30.1276 57.2428C27.7092 56.9358 25.2077 56.2748 23.2686 54.8875C23.2678 54.8875 23.267 54.8875 23.2662 54.8875C23.2422 54.8707 23.2198 54.8524 23.1958 54.8356C23.1342 54.7902 23.0718 54.7455 23.011 54.6985C22.9094 54.6204 22.8086 54.5406 22.7102 54.4585C22.7102 54.4585 22.7086 54.4577 22.7086 54.4569C22.6342 54.3939 22.5566 54.327 22.4774 54.2576C22.455 54.2377 22.4326 54.2177 22.4094 54.1978C22.347 54.1428 22.2838 54.0854 22.219 54.0256C22.1982 54.0064 22.1774 53.9881 22.1566 53.9682C22.0702 53.8884 21.9822 53.8055 21.8918 53.7194C21.8014 53.6333 21.7078 53.5424 21.6134 53.4499C21.595 53.4316 21.5766 53.4132 21.5574 53.3949C21.4726 53.3112 21.3854 53.2243 21.2974 53.1358C21.2862 53.1238 21.275 53.1126 21.263 53.1015C21.0566 52.8926 20.843 52.6709 20.6222 52.4373C20.6102 52.4245 20.5974 52.411 20.5854 52.3982C20.4766 52.2826 20.367 52.1654 20.255 52.0442C20.255 52.0442 20.255 52.0442 20.2542 52.0434C20.207 51.9924 20.1598 51.9414 20.1126 51.8895C20.1126 51.8895 20.1126 51.8888 20.1118 51.888C19.8206 51.5706 19.5199 51.2349 19.2103 50.8825C19.2071 50.8785 19.2039 50.8754 19.2007 50.8714C18.7391 50.3451 18.2591 49.783 17.7671 49.1898C17.7583 49.1795 17.7503 49.1691 17.7415 49.1587C17.5799 48.9634 17.4167 48.7657 17.2527 48.5639C17.2511 48.5623 17.2503 48.5607 17.2487 48.5591C16.9199 48.1557 16.5871 47.7395 16.2519 47.3129C16.2359 47.293 16.2207 47.2731 16.2047 47.2531C16.0408 47.0442 15.876 46.833 15.7104 46.6193C15.7096 46.6185 15.7088 46.6169 15.708 46.6161C15.5416 46.4008 15.3744 46.1823 15.208 45.9623C15.1992 45.9503 15.1896 45.9384 15.1808 45.9264C15.0192 45.7135 14.8576 45.4982 14.6952 45.2806C14.6752 45.2535 14.6552 45.2271 14.6352 45.2C14.472 44.9808 14.3088 44.7599 14.1456 44.5375C14.1456 44.5375 14.1448 44.5359 14.144 44.5351C13.9824 44.3142 13.8216 44.0926 13.6608 43.8685C13.6424 43.8422 13.6232 43.8167 13.6048 43.7912C13.4488 43.5735 13.2936 43.355 13.1384 43.1358C13.1144 43.1015 13.0904 43.0672 13.0664 43.0337C12.752 42.5864 12.4401 42.1351 12.1321 41.6807C12.1073 41.644 12.0825 41.6073 12.0577 41.5706C11.9097 41.3514 11.7625 41.1313 11.6161 40.9113C11.5913 40.873 11.5657 40.8355 11.5409 40.7972C11.3937 40.574 11.2473 40.3507 11.1025 40.1267C11.0993 40.1219 11.0961 40.1163 11.0929 40.1115C10.9473 39.8859 10.8033 39.6603 10.6601 39.4346C10.6329 39.3916 10.6049 39.3477 10.5777 39.3047C10.4393 39.0846 10.3025 38.8645 10.1665 38.6453C10.1433 38.6078 10.1201 38.5695 10.0977 38.5321C9.96812 38.3208 9.84012 38.1103 9.71453 37.8998C9.70093 37.8775 9.68733 37.8551 9.67373 37.832C9.54173 37.6104 9.41133 37.3895 9.28334 37.1686C9.25694 37.1224 9.22974 37.0769 9.20334 37.0307C9.07694 36.8122 8.95215 36.5938 8.82975 36.3761C8.81055 36.3426 8.79215 36.3091 8.77375 36.2748C8.66016 36.0715 8.54816 35.8682 8.43776 35.6657C8.42016 35.6338 8.40256 35.6011 8.38496 35.5692C8.26817 35.3539 8.15457 35.1395 8.04337 34.9258C8.01937 34.8795 7.99458 34.8325 7.97058 34.7862C7.85938 34.571 7.74978 34.3573 7.64338 34.1436C7.63058 34.1181 7.61858 34.0926 7.60578 34.0671C7.50659 33.8677 7.41059 33.6692 7.31619 33.4715C7.29859 33.4348 7.28099 33.3973 7.26339 33.3606C7.165 33.1525 7.0698 32.946 6.977 32.7411C6.9578 32.6981 6.9386 32.6542 6.9186 32.6112C6.82501 32.4015 6.73381 32.1934 6.64661 31.9877C6.64021 31.9733 6.63461 31.959 6.62901 31.9446C6.54581 31.7469 6.46662 31.5515 6.38982 31.357C6.37462 31.3195 6.36022 31.282 6.34502 31.2446C6.26822 31.0468 6.19462 30.8515 6.12423 30.6577C6.10983 30.6187 6.09623 30.5796 6.08263 30.5405C6.01143 30.3404 5.94263 30.1419 5.87863 29.9457C5.84183 29.8317 5.80423 29.7193 5.76664 29.6101C5.58904 29.0902 5.40825 28.6174 5.24425 28.1693C5.22585 28.1191 5.20745 28.0688 5.18985 28.0194C4.72586 26.7365 4.42427 25.6545 4.77786 24.2848C4.82906 24.0854 4.89466 23.8797 4.97546 23.6668C5.01546 23.56 5.06026 23.4516 5.10825 23.3415C5.54264 22.3465 6.30422 21.1824 7.53139 19.7105C9.48013 17.6542 11.4737 15.8284 13.4112 14.2258C13.6536 14.0256 13.8952 13.8287 14.1352 13.635C15.8176 12.2811 17.4479 11.0963 18.9591 10.0749C19.3911 9.78311 19.8134 9.50484 20.2238 9.23933C23.1006 7.38317 25.4253 6.17364 26.6661 5.56449C26.7581 5.51904 26.8517 5.47519 26.9477 5.43134C26.9789 5.41698 27.0117 5.40343 27.0428 5.38908C27.1076 5.36037 27.1724 5.33087 27.2388 5.30217C27.2788 5.28543 27.3196 5.26868 27.3604 5.25194C27.4204 5.22722 27.4796 5.20251 27.5404 5.17779C27.5852 5.16025 27.6308 5.14271 27.6764 5.12517C27.7348 5.10284 27.7924 5.08052 27.8516 5.05819C27.8996 5.04065 27.9484 5.02311 27.9972 5.00557C28.0548 4.98484 28.1132 4.96411 28.1716 4.94417C28.222 4.92663 28.2732 4.90989 28.3236 4.89315C28.382 4.87401 28.4396 4.85487 28.4988 4.83654C28.5516 4.81979 28.6044 4.80385 28.6572 4.7879C28.7156 4.77036 28.774 4.75282 28.8332 4.73607C28.8876 4.72013 28.942 4.70498 28.9964 4.69063C29.0556 4.67468 29.1148 4.65873 29.174 4.64359C29.2292 4.62923 29.2852 4.61488 29.3412 4.60133C29.4012 4.58618 29.4612 4.57262 29.522 4.55827C29.578 4.54551 29.6348 4.53196 29.6908 4.52C29.7516 4.50645 29.8132 4.49449 29.874 4.48173C29.9308 4.46977 29.9876 4.45861 30.0452 4.44744C30.1076 4.43548 30.17 4.42432 30.2332 4.41396C30.29 4.40439 30.346 4.39402 30.4028 4.38446C30.4676 4.37409 30.5316 4.36452 30.5963 4.35575C30.6515 4.34778 30.7075 4.33901 30.7635 4.33183C30.8323 4.32306 30.9011 4.31509 30.9691 4.30712C31.0211 4.30153 31.0731 4.29436 31.1259 4.28958C31.2059 4.2816 31.2859 4.27522 31.3659 4.26884C31.4075 4.26566 31.4491 4.26087 31.4899 4.25848C31.6107 4.25051 31.7315 4.24333 31.8531 4.23934C31.8835 4.23855 31.9139 4.23855 31.9451 4.23775C32.0363 4.23536 32.1275 4.23297 32.2187 4.23297C32.2243 4.23297 32.2299 4.23297 32.2355 4.23297C32.3163 4.23297 32.3963 4.23536 32.4771 4.23695C32.5043 4.23695 32.5315 4.23695 32.5579 4.23855C32.6707 4.24253 32.7827 4.24811 32.8955 4.25529C32.9315 4.25768 32.9675 4.26167 33.0043 4.26486C33.0803 4.27124 33.1563 4.27682 33.2323 4.28479C33.2787 4.28958 33.3251 4.29595 33.3723 4.30153C33.4371 4.30951 33.5019 4.31668 33.5667 4.32625C33.6163 4.33343 33.6659 4.3422 33.7155 4.35017C33.7763 4.35974 33.8371 4.3701 33.8979 4.38127C33.9483 4.39083 33.9987 4.4012 34.0491 4.41156C34.1083 4.42352 34.1667 4.43628 34.2251 4.44984C34.2754 4.4618 34.3258 4.47455 34.3762 4.48731C34.4338 4.50166 34.4914 4.51681 34.5482 4.53276C34.5986 4.54711 34.6482 4.56146 34.6986 4.57661C34.7546 4.59335 34.8114 4.61169 34.8666 4.63003C34.9162 4.64677 34.965 4.66352 35.0146 4.68106C35.0698 4.70099 35.1258 4.72172 35.1802 4.74325C35.2282 4.76159 35.2762 4.78072 35.3242 4.80066C35.3794 4.82378 35.4338 4.8477 35.4882 4.87162C35.5346 4.89235 35.581 4.91308 35.6266 4.9354C35.6818 4.96172 35.7354 4.98962 35.7898 5.01673C35.8338 5.03985 35.8786 5.06218 35.9226 5.0861C35.9778 5.1164 36.0322 5.14829 36.0858 5.18018C36.1274 5.2049 36.169 5.22882 36.2106 5.25433C36.2666 5.28941 36.3218 5.32609 36.377 5.36356C36.4146 5.38908 36.453 5.413 36.4898 5.43931C36.5506 5.48236 36.6098 5.52781 36.6698 5.57326C36.7002 5.59638 36.7306 5.61791 36.7602 5.64183C36.849 5.71199 36.9362 5.78535 37.021 5.86269C39.8425 8.39896 40.4209 9.06632 45.2295 15.814C46.0255 16.9311 46.7423 17.966 47.3871 18.922C48.5479 20.6426 49.4758 22.1089 50.215 23.3407C50.3798 23.6142 50.5342 23.8765 50.6806 24.1269C50.9734 24.6284 51.231 25.0845 51.4566 25.4967C51.5694 25.7032 51.675 25.8985 51.7726 26.0827C52.2622 27.006 52.5677 27.6622 52.7517 28.0792C52.7605 28.0983 52.7677 28.1191 52.7733 28.1414C52.8157 28.2945 52.7957 28.5042 52.6325 28.6373L52.6381 28.6278Z" fill="white"/>
<path d="M48.8889 62.7593C48.879 62.7766 48.8691 62.793 48.8584 62.8094C48.8683 62.793 48.8782 62.7758 48.8889 62.7593Z" fill="white"/>
<path d="M48.0861 63.9466C48.0737 63.9615 48.0613 63.9763 48.0488 63.992C48.0613 63.9771 48.0737 63.9615 48.0861 63.9466Z" fill="white"/>
<path d="M48.1861 63.8215C48.1754 63.8353 48.164 63.8492 48.1533 63.8631C48.1648 63.8492 48.1754 63.8353 48.1861 63.8215Z" fill="white"/>
<path d="M47.9746 64.0782C47.9629 64.0915 47.952 64.1049 47.9395 64.119C47.9512 64.1057 47.9629 64.0915 47.9746 64.0782Z" fill="white"/>
<path d="M318.595 45.8669H329.57L328.966 55.8438H307.463V18.7715H329.57L328.966 28.7485H318.595V32.9755H328.099L327.496 41.6398H318.595V45.8669Z" fill="white"/>
<path d="M274.749 55.8438V18.7715H288.612C297.512 18.7715 302.842 22.9198 302.842 30.2713C302.842 35.2072 299.98 39.3031 295.543 41.1672L303.997 52.7982L293.863 57.4454L286.039 41.771H286.196V55.8438H274.749ZM286.196 33.842H287.798C290.686 33.842 292.13 32.608 292.13 30.8489C292.13 29.0635 290.712 27.9608 288.428 27.9608H286.196V33.842Z" fill="white"/>
<path d="M257.001 56.4477C248.18 56.4477 242.666 51.3279 242.666 43.2413V30.9276C242.666 22.9986 248.18 17.9576 257.001 17.9576C265.692 17.9576 271.074 22.9986 271.074 30.9276V43.2413C271.074 51.3279 265.692 56.4477 257.001 56.4477ZM254.087 42.1911C254.087 45.3418 255.347 46.7595 257.316 46.7595C259.469 46.7595 260.861 45.3155 260.861 42.1911V32.2404C260.861 29.0898 259.469 27.6457 257.316 27.6457C255.347 27.6457 254.087 29.0635 254.087 32.2404V42.1911Z" fill="white"/>
<path d="M226.57 45.1054L227.017 42.2436L230.561 18.7715H240.643L233.528 55.3187L217.696 56.6315L208.454 19.034L220.61 17.9838L225.467 42.2436L226.019 45.1054H226.57Z" fill="white"/>
<path d="M194.04 56.3689V19.2966L205.198 18.7715V55.8438L194.04 56.3689Z" fill="white"/>
<path d="M176.03 55.8702H163.165V18.5353H176.03C186.112 18.5353 190.654 25.4404 190.654 36.3888V37.6228C190.654 48.8075 186.112 55.8702 176.03 55.8702ZM174.297 45.8932H175.426C179.653 45.8932 180.415 43.1889 180.415 38.4892V35.9425C180.415 31.2428 179.601 28.5123 175.4 28.5123H174.297V45.8932Z" fill="white"/>
<path d="M157.362 17.9576L158.57 55.2925L148.199 56.6577L141.399 40.4583L140.926 39.1455H140.27L139.981 55.8438H129.138L129.742 19.5854L140.375 18.2201L147.28 36.3625L147.648 37.6752H148.33L146.834 19.034L157.362 17.9576Z" fill="white"/>
<path d="M116.115 57.0253L115.196 50.4615H108.448L107.608 55.8438H96.1084L104.064 19.2966L118.058 17.8525L126.459 55.8438L116.115 57.0253ZM109.892 41.3772H113.909L112.387 30.6126L112.334 30.35H111.625L109.892 41.3772Z" fill="white"/>
<path d="M84.8454 34.2621C84.8191 30.6651 83.9002 28.1709 82.1936 28.1709C80.2769 28.1709 79.6993 29.7987 79.6993 31.8991V41.7711C79.6993 44.3966 80.9071 46.2345 82.85 46.2345C85.2654 46.2345 85.9481 43.714 86.0793 41.2197L95.1111 41.8236C95.1899 47.521 91.8817 56.1852 82.2461 56.1852C75.4722 56.1852 68.2783 52.0368 68.2783 41.246V32.6868C68.2783 22.2109 74.5796 18.2202 81.6685 18.2202C90.7003 18.2202 94.271 23.7863 94.5335 33.3431L84.8454 34.2621Z" fill="white"/>
</svg>
